# xmcd
#
# Track frame offsets:
#	183
#	14088
#	23395
#	32373
#	39613
#	54908
#	65165
#	74608
#	83630
#	92110
#	104045
#	114670
#	122978
#	137385
#	145093
#	156930
#	165765
#	174583
#
# Disc length: 2458 seconds
#
# Revision: 2
# Processed by: cddbd v1.5.2PL0 Copyright (c) Steve Scherf et al.
# Submitted via: audiograbber 1.83.01
#
DISCID=ef099812
DTITLE=Jim Reeves - How's The World Treating You?
DYEAR=1997
DGENRE=Country
TTITLE0=How's The World Treating You? (Live)
TTITLE1=Wind Up Doll (Live)
TTITLE2=According To My Heart (Live)
TTITLE3=I'm Beginning To Forget You (Live)
TTITLE4=Making Believe (Live)
TTITLE5=Dear Hearts And Gentle People (Live)
TTITLE6=Beyond The Shadow Of A Doubt (Live)
TTITLE7=I'd Like To Be (Live)
TTITLE8=Everywhere You Go (Live)
TTITLE9=I've Lived A Lot In My Time (Live)
TTITLE10=Evening Prayer (Live)
TTITLE11=Sweet Evening Breeze (Bring My Baby Back To Me) (Live)
TTITLE12=Highway To Nowhere (Live)
TTITLE13=In A MAnsion Stands My Love (Live)
TTITLE14=Mexican Joe (Live)
TTITLE15=If You Were Mine (Live)
TTITLE16=Old Time Religion (Live)
TTITLE17=Home (Live)
EXTD=YEAR: 1997
EXTT0=
EXTT1=
EXTT2=
EXTT3=
EXTT4=
EXTT5=
EXTT6=
EXTT7=
EXTT8=
EXTT9=
EXTT10=
EXTT11=
EXTT12=
EXTT13=
EXTT14=
EXTT15=
EXTT16=
EXTT17=
PLAYORDER=
